<svg fill="none" focusable="false" height="24" role="img" viewBox="0 0 24 24" width="24" xmlns="http://www.w3.org/2000/svg" xmlns:xlink="http://www.w3.org/1999/xlink" class="css-npdrhf" aria-labelledby="f49c6667-e096-4390-8cf2-55e23036818b"><defs><symbol id="call" viewBox="0 0 24 24">
      <path fill="currentColor" d="M4.51 4.26a1 1 0 0 0-1.41 0L.46 6.89a1 1 0 0 0-.29.66h-.1a16.82 16.82 0 0 0 4.69 11.61 15.96 15.96 0 0 0 5.18 3.56 15.6 15.6 0 0 0 6.12 1.25v-.07a1 1 0 0 0 .48-.26l2.73-2.74a1 1 0 0 0 0-1.41l-3.69-3.69a1 1 0 0 0-1.41 0l-2.67 2.67a11.55 11.55 0 0 1-3.62-2.52 11.9 11.9 0 0 1-2.49-3.81 1 1 0 0 0 .18-.14L8.2 9.36a1 1 0 0 0 0-1.41l-3.69-3.7Z"></path>
      <path fill="currentColor" d="M12.16 12.43a.5.5 0 0 1-.4-.8l1.2-1.56a6.22 6.22 0 1 1 4.88 2.36h-5.68Zm2.02-1.5h3.65a4.72 4.72 0 1 0-3.7-1.8l.72.92-.67.88Z"></path>
    </symbol></defs><title id="f49c6667-e096-4390-8cf2-55e23036818b" fill="none">Bel ons</title><use xlink:href="#call"></use></svg>