<svg fill="none" focusable="false" height="24" role="img" viewBox="0 0 24 24" width="24" xmlns="http://www.w3.org/2000/svg" xmlns:xlink="http://www.w3.org/1999/xlink" class="css-npdrhf" aria-labelledby="f0924f88-3df2-490d-8582-634cfe6e7388"><defs><symbol id="order" viewBox="0 0 24 24">
      <path fill="currentColor" d="M20 4h-2.5c-.4-.9-1.3-1.6-2.3-1.7C14.7 1 13.4.2 12 .2c-1.4 0-2.7.8-3.2 2.1C7.8 2.4 7 3 6.6 4H4c-.6 0-1 .4-1 1v18c0 .6.4 1 1 1h16c.6 0 1-.4 1-1V5c0-.6-.4-1-1-1zM7.9 5c0-.7.6-1.2 1.2-1.2h1l.1-.7c.1-.7.8-1.4 1.9-1.4s1.8.7 1.9 1.4v.7h1c.7 0 1.2.6 1.2 1.2v1.4H7.9V5zm3 13.2-3.7-3.3 1.3-1.5 2.3 2.1 4.6-4.2 1.3 1.5-5.8 5.4z"></path>
    </symbol></defs><title id="f0924f88-3df2-490d-8582-634cfe6e7388" fill="none">Bestelstatus</title><use xlink:href="#order"></use></svg>