<svg fill="none" focusable="false" height="24" role="img" viewBox="0 0 24 24" width="24" xmlns="http://www.w3.org/2000/svg" xmlns:xlink="http://www.w3.org/1999/xlink" class="css-84d4bu" aria-labelledby="80cf12f8-3b39-40f9-95a8-32d89097e0b3"><defs><symbol id="menu" viewBox="0 0 24 24">
      <path fill="currentColor" d="M1 4a1 1 0 0 0 0 2h22a1 1 0 1 0 0-2H1Zm-1 8a1 1 0 0 1 1-1h22a1 1 0 1 1 0 2H1a1 1 0 0 1-1-1Zm0 7a1 1 0 0 1 1-1h22a1 1 0 1 1 0 2H1a1 1 0 0 1-1-1Z"></path>
    </symbol></defs><title id="80cf12f8-3b39-40f9-95a8-32d89097e0b3" fill="none">open menu</title><use xlink:href="#menu"></use></svg>