<svg aria-hidden="true" fill="none" focusable="false" height="24" viewBox="0 0 24 24" width="24" xmlns="http://www.w3.org/2000/svg" xmlns:xlink="http://www.w3.org/1999/xlink" class="css-1s153qh"><circle cx="12" cy="12" fill="#FFFFFF" r="11.1"></circle><g><path d="M12,24c-3.1,0-6.2-1.3-8.5-3.5l1.3-1.3c2.2,2.2,5.4,3.3,8.5,2.9l0.2,1.8C13,24,12.5,24,12,24z" fill="url(#designYourOwnLinearGradient1)"></path><path d="M13.4,23.9l-0.2-1.8 c3.1-0.4,5.8-2.1,7.4-4.8l1.5,0.9C20.3,21.4,17.1,23.4,13.4,23.9z" fill="url(#designYourOwnLinearGradient2)"></path><path d="M3.5,20.5c-2.6-2.6-3.8-6.2-3.4-9.9 l1.8,0.2c-0.4,3.1,0.6,6.2,2.9,8.4L3.5,20.5z" fill="url(#designYourOwnLinearGradient3)"></path><path d="M21.6,8.6c-1-2.9-3.3-5.2-6.2-6.2L16,0.7 c3.4,1.2,6.1,3.9,7.3,7.3L21.6,8.6z" fill="url(#designYourOwnLinearGradient4)"></path><path d="M22.2,18.3l-1.5-0.9c0.4-0.7,0.7-1.4,1-2 c0.7-2.1,0.7-4.5,0-6.8L23.3,8c0.9,2.6,0.9,5.4,0,7.9C23,16.8,22.7,17.5,22.2,18.3z" fill="url(#designYourOwnLinearGradient5)"></path><path d="M1.9,10.8l-1.8-0.3c0.1-1,0.3-1.7,0.6-2.5 c0.9-2.6,2.7-4.8,5.1-6.3l0.9,1.5c-2,1.2-3.5,3.1-4.3,5.3C2.2,9.3,2,10,1.9,10.8z" fill="url(#designYourOwnLinearGradient6)"></path><path d="M6.7,3.3l-1-1.5c3-1.9,6.9-2.3,10.3-1.1 l-0.6,1.7C12.5,1.4,9.3,1.7,6.7,3.3z" fill="url(#designYourOwnLinearGradient7)"></path></g><path d="M17.3,14.5l0-5.1c0-0.1,0-0.2,0-0.3v0c-0.1-0.9-0.9-1.6-2.4-1.6c-0.8,0-1.5,0.2-2.1,0.6 c-0.3-0.4-0.9-0.6-1.7-0.6c-0.8,0-1.4,0.2-2.1,0.6V7.6H6.1l0,1.4c0.4,0,0.6,0.3,0.6,0.6l0,4.9c0,0.4-0.2,0.6-0.6,0.6l0,1.3l3.5,0 l0-1.3c-0.4,0-0.5-0.2-0.5-0.6l0-4.5c0-0.5,0.4-0.7,0.9-0.7c0.5,0,0.9,0.2,0.9,0.7l0,6.5h2.9l0-1.3c-0.4,0-0.5-0.2-0.5-0.6l0-4.5 c0-0.5,0.4-0.7,0.9-0.7S15,9.6,15,10.1c0,0.1,0,1.5,0,3c0,1.7,0,3.5,0,3.5h0v0h0.7l2.2,0l0-1.3C17.4,15.2,17.3,14.9,17.3,14.5z" fill="#592310"></path></svg>