<svg aria-hidden="true" fill="none" focusable="false" height="24" viewBox="0 0 24 24" width="24" xmlns="http://www.w3.org/2000/svg" xmlns:xlink="http://www.w3.org/1999/xlink" class="css-84d4bu"><defs><symbol id="addFilled" viewBox="0 0 24 24">
      <path fill="currentColor" d="M12 0C5.4 0 0 5.4 0 12s5.4 12 12 12 12-5.4 12-12S18.6 0 12 0zm4 12.8h-3.1V16c0 .5-.4.8-.8.8-.5 0-.8-.4-.8-.8h.1v-3.1H8c-.5 0-.8-.4-.8-.8 0-.5.4-.8.8-.8h3.2V7.9c0-.5.4-.8.8-.8.5 0 .8.4.8.8v3.3H16c.5 0 .8.4.8.8 0 .5-.4.8-.8.8z"></path>
    </symbol></defs><use xlink:href="#addFilled"></use></svg>