<svg aria-hidden="true" fill="none" focusable="false" height="24" viewBox="0 0 24 24" width="24" xmlns="http://www.w3.org/2000/svg" xmlns:xlink="http://www.w3.org/1999/xlink" class="css-84d4bu"><defs><symbol id="add" viewBox="0 0 24 24">
      <path fill="currentColor" d="M12 0C5.4 0 0 5.4 0 12s5.4 12 12 12 12-5.4 12-12S18.6 0 12 0zm0 22.5a10.5 10.5 0 1 1 0-21 10.5 10.5 0 0 1 0 21z"></path>
      <path fill="currentColor" d="M11.3 16c0 .4.3.8.8.8.4 0 .8-.3.8-.8v-3.2H16c.4 0 .8-.3.8-.8 0-.4-.3-.8-.8-.8h-3.2V7.9c0-.4-.3-.8-.8-.8-.4 0-.8.3-.8.8v3.4H8c-.4 0-.8.3-.8.8 0 .4.3.8.8.8h3.4V16z"></path>
    </symbol></defs><use xlink:href="#add"></use></svg>